<?xml version="1.0" standalone="yes"?>
<svg xmlns="http://www.w3.org/2000/svg" width="400" height="400">
<path style="fill:#fdfdfd; stroke:none;" d="M0 0L0 400L400 400L400 0L0 0z"/>
<path style="fill:#b5976c; stroke:none;" d="M356 99L353 103L356 103L357 102L356 99z"/>
<path style="fill:#181818; stroke:none;" d="M356 100L356 101C357.604 100.721 359.376 100.22 361.02 100.487C375.404 102.82 357.333 121.682 354.603 107.02C354.292 105.354 354.736 103.634 355 102C350.644 108.414 357.479 117.261 364.772 112.821C374.067 107.161 363.995 97.6642 356 100z"/>
<path style="fill:#b5976c; stroke:none;" d="M364 99L365 100L364 99M358 100L359 101L358 100z"/>
<path style="fill:#fdfdfd; stroke:none;" d="M359 100L359 101C364.142 102.575 363.091 106.424 364 111L359 108L360 111L358 101C353.614 104.885 354.133 114.216 361.957 112.427C370.845 110.395 365.581 100.749 359 100z"/>
<path style="fill:#0e5b9e; stroke:none;" d="M363 100L364 101L363 100M365 100L366 101L365 100z"/>
<path style="fill:#181818; stroke:none;" d="M355 101L356 102L355 101z"/>
<path style="fill:#0e5b9e; stroke:none;" d="M358 101L359 102L358 101z"/>
<path style="fill:#181818; stroke:none;" d="M358 111L359 111L359 107L363 111C364.387 100.588 358.008 100.202 358 111z"/>
<path style="fill:#b5976c; stroke:none;" d="M362 101L363 102L362 101z"/>
<path style="fill:#0e5b9e; stroke:none;" d="M360 102L361 103L360 102z"/>
<path style="fill:#b5976c; stroke:none;" d="M363 102L364 103L363 102M365 102L366 103L365 102M367 102L368 103L367 102z"/>
<path style="fill:#0e5b9e; stroke:none;" d="M353 103L354 104L353 103z"/>
<path style="fill:#b5976c; stroke:none;" d="M357.333 103.667L357.667 104.333L357.333 103.667z"/>
<path style="fill:#fdfdfd; stroke:none;" d="M359 103L360 106L361 106L362 103L359 103z"/>
<path style="fill:#b5976c; stroke:none;" d="M366 103L367 104L366 103M354 104L355 105L354 104M368.333 104.667L368.667 105.333L368.333 104.667M359 105L360 106L359 105M361 105L362 106L361 105M363 105L364 106L363 105M352 106L353 107L352 106M362.333 106.667L362.667 107.333L362.333 106.667z"/>
<path style="fill:#0e5b9e; stroke:none;" d="M368.333 106.667L368.667 107.333L368.333 106.667z"/>
<path style="fill:#b5976c; stroke:none;" d="M248 107L248 108L277 108L248 107M357 107L357 110L358 110L357 107M359.667 107.333L360.333 107.667L359.667 107.333M228 108L228 109L239 110L228 108z"/>
<path style="fill:#0e5b9e; stroke:none;" d="M236 108L236 109C251.731 111.92 267.402 111.97 283 116.421C290.65 118.604 298.2 121.244 305 125.468C335.049 144.129 314.915 174.912 294 191.112C263.608 214.653 226.147 228.951 190 241C171.357 247.214 151.533 254.37 132 257C136.708 258.838 143.114 256.599 148 255.75C160.082 253.651 172.029 251.068 184 248.424C237.025 236.713 298.78 218.135 341 182.561C346.128 178.24 351.049 173.351 355.1 168C357.871 164.341 360.409 160.37 361.896 156C373.853 120.861 322.376 110.798 298 109.09C277.371 107.644 256.702 108 236 108z"/>
<path style="fill:#b5976c; stroke:none;" d="M289 108L289 109L296 109L289 108M354 108L355 109L354 108z"/>
<path style="fill:#0e5b9e; stroke:none;" d="M361 108L362 109L361 108z"/>
<path style="fill:#b5976c; stroke:none;" d="M368 108L369 109L368 108M301 109L301 110L304 110L301 109z"/>
<path style="fill:#0e5b9e; stroke:none;" d="M353 109L354 110L353 109z"/>
<path style="fill:#b5976c; stroke:none;" d="M359.333 109.667L359.667 110.333L359.333 109.667z"/>
<path style="fill:#0e5b9e; stroke:none;" d="M363 109L364 110L363 109z"/>
<path style="fill:#b5976c; stroke:none;" d="M366 109L367 110L366 109M247 110L247 111L252 111L247 110M309 110L309 111L312 111L309 110M353 110L354 111L353 110M355 110L356 111L355 110M362 110L363 111L362 110z"/>
<path style="fill:#0e5b9e; stroke:none;" d="M367 110L368 111L367 110z"/>
<path style="fill:#b5976c; stroke:none;" d="M257 111L257 112L260 112L257 111M315.667 111.333L316.333 111.667L315.667 111.333M354 111L355 112L354 111M356 111L357 112L356 111M364 111L365 112L364 111M264 112L264 113L267 113L264 112M320.667 112.333L321.333 112.667L320.667 112.333M355 112L356 113L355 112z"/>
<path style="fill:#0e5b9e; stroke:none;" d="M357 112L358 113L357 112z"/>
<path style="fill:#b5976c; stroke:none;" d="M363 112L364 113L363 112M270.667 113.333L271.333 113.667L270.667 113.333M325 113L326 114L325 113M356 113L357 114L356 113M364 113L365 114L364 113M274 114L274 115L277 115L274 114M328.667 114.333L329.333 114.667L328.667 114.333M358 114L359 115L358 114z"/>
<path style="fill:#0e5b9e; stroke:none;" d="M359 114L359 115L362 115L359 114z"/>
<path style="fill:#b5976c; stroke:none;" d="M362 114L363 115L362 114M279 115L280 116L279 115M332 115L333 116L332 115M283 116L284 117L283 116M335 116L336 117L335 116M286 117L287 118L286 117M337 117L338 118L337 117M289.667 118.333L290.333 118.667L289.667 118.333M340 118L341 119L340 118M292 119L293 120L292 119M342 119L343 120L342 119M178 120L178 121L193 121L178 120M295 120L296 121L295 120M344 120L345 121L344 120M32 121L33 125L34 125L33 122L53 124C53.8081 119.098 35.7656 121 32 121M75 124C78.9033 122.048 96.9808 120.077 96 124L97 124L98 121C91.0891 121 80.1316 118.76 75 124M111 122L111 123L133 122C127.251 119.588 116.918 120.251 111 122M173.667 121.333L174.333 121.667L173.667 121.333z"/>
<path style="fill:#e23a2d; stroke:none;" d="M191 139L209 138C207.886 133.49 207.399 128.88 203.671 125.638C190.951 114.577 157.907 119.888 158.083 140C158.182 151.262 169.99 155.004 179 157.371C182.905 158.397 190.504 160.359 189.248 165.982C185.86 181.166 172.609 163.469 168.776 162.318C163.699 160.794 153.357 160.663 154.348 168.005C157.489 191.269 200.746 186.83 207.387 168C212.261 154.182 201.872 146.709 190 143.297C186.311 142.237 178.832 141.848 177.037 137.78C175.439 134.158 180.167 132.097 183 132.167C187.432 132.278 189.671 135.184 191 139z"/>
<path style="fill:#b5976c; stroke:none;" d="M195.667 121.333L196.333 121.667L195.667 121.333M221 121L221 122L240 122L221 121M260 123C265.558 121.677 274.248 120.4 279 124C280.694 119.508 262.342 119.792 260 123M297 121L298 122L297 121M346 121L347 122L346 121z"/>
<path style="fill:#e23a2d; stroke:none;" d="M33 122L51.5015 157L50 182L69 182L71.9228 157L97 122L77.1844 123.028L63 142L51.6204 122.603L33 122M84 182C94.4443 182 103.832 184.589 106 172C116.7 172 128.202 168.723 130 182L149 182L133 122L112.39 123.028L103.691 139L84 182z"/>
<path style="fill:#b5976c; stroke:none;" d="M170 122L171 123L170 122M198.667 122.333L199.333 122.667L198.667 122.333z"/>
<path style="fill:#e23a2d; stroke:none;" d="M221 122L216 182L234 182L236 158L257 158L255 182L274 182L279 122L261.603 123.028L259 143L238 143L240 122L221 122z"/>
<path style="fill:#b5976c; stroke:none;" d="M299 122L300 123L299 122M348 122L349 123L348 122M168 123L169 124L168 123M200.667 123.333L201.333 123.667L200.667 123.333M220 123L220 128L221 128L220 123M239 123L239 129L240 129L239 123M301 123L302 124L301 123M349 123L350 124L349 123M110 124L111 125L110 124M133.333 124.667L133.667 125.333L133.333 124.667M166 124L167 125L166 124M202 124L203 125L202 124M303 124L304 125L303 124M351 124L352 125L351 124M54 125L55 126L54 125M74 125L75 126L74 125M95 125L96 126L95 125M165 125L166 126L165 125M305 125L306 126L305 125M352 125L353 126L352 125M34 126L35 127L34 126M55 126L56 127L55 126M73 126L74 127L73 126M94 126L95 127L94 126M109 126L110 127L109 126M353 126L354 127L353 126M93 127L94 128L93 127M205 127L206 128L205 127M308 127L309 128L308 127M35 128L36 129L35 128M56.3333 128.667L56.6667 129.333L56.3333 128.667M72 128L73 129L72 128M92 128L93 129L92 128M108 128L109 129L108 128M134 128L135 129L134 128M206 128L207 129L206 128M259 128L259 136L260 136L259 128M309 128L310 129L309 128M36 129L37 130L36 129M71 129L72 130L71 129M278 129L278 136L279 136L278 129M310 129L311 130L310 129M57 130L58 131L57 130M91 130L92 131L91 130M107 130L108 131L107 130M160 130L161 131L160 130M207 130L208 131L207 130M37 131L38 132L37 131M70 131L71 132L70 131M90 131L91 132L90 131M135.333 131.667L135.667 132.333L135.333 131.667M358 131L359 132L358 131M58 132L59 133L58 132M69 132L70 133L69 132M106 132L107 133L106 132M159 132L160 133L159 132M178.667 132.333L179.333 132.667L178.667 132.333M186 132L187 133L186 132M359 132L360 133L359 132M38 133L39 134L38 133M177 133L178 134L177 133M188 133L189 134L188 133M208 133L208 137L209 137L208 133M238 133L238 140L239 140L238 133M39.3333 134.667L39.6667 135.333L39.3333 134.667M59 134L60 135L59 134M88 134L89 135L88 134M105 134L106 135L105 134M136.333 134.667L136.667 135.333L136.333 134.667M158.333 134.667L158.667 135.333L158.333 134.667M189 134L190 135L189 134M219 134L219 141L220 141L219 134M315 134L316 135L315 134M360 134L361 135L360 134M67 135L68 136L67 135M87 135L88 136L87 135M316 135L317 136L316 135M40 136L41 137L40 136M60.3333 136.667L60.6667 137.333L60.3333 136.667M104.333 136.667L104.667 137.333L104.333 136.667M175.333 136.667L175.667 137.333L175.333 136.667M190.333 136.667L190.667 137.333L190.333 136.667M317 137L318 138L317 137M41 138L42 139L41 138M61 138L62 139L61 138M65 138L66 139L65 138M85 138L86 139L85 138M120 138L119 141L120 141L120 138M137.333 138.667L137.667 139.333L137.333 138.667M206 138L206 139L209 139L206 138M362 138L363 139L362 138M64 139L65 140L64 139M84 139L85 140L84 139M103 139L104 140L103 139z"/>
<path style="fill:#fdfdfd; stroke:none;" d="M120 139L113 159L125 159L120 139z"/>
<path style="fill:#b5976c; stroke:none;" d="M157.333 139.667L157.667 140.333L157.333 139.667M177 139L178 140L177 139M191 139L191 140L199 140L191 139M258 139C254.599 144.246 243.676 142 238 142L238 143L259 143L258 139M318 139L319 140L318 139M42 140L43 141L42 140M62 140L63 141L62 140M179 140L180 141L179 140M43 141L44 142L43 141M63 141L64 142L63 141M102 141L103 142L102 141M121.333 141.667L121.667 142.333L121.333 141.667M138 141L138 144L139 144L138 141M182.667 141.333L183.333 141.667L182.667 141.333M277 141L277 147L278 147L277 141M319 141L320 142L319 141M363.333 141.667L363.667 142.333L363.333 141.667M82 142L83 143L82 142M118 142L119 143L118 142M187.667 142.333L188.333 142.667L187.667 142.333M44 143L45 144L44 143M81 143L82 144L81 143M101 143L102 144L101 143M190.667 143.333L191.333 143.667L190.667 143.333M80 144L81 145L80 144M158 144L159 145L158 144M194 144L195 145L194 144M320 144L320 148L321 148L320 144M45 145L46 146L45 145M100 145L101 146L100 145M117 145L118 146L117 145M122 145L122 148L123 148L122 145M139.333 145.667L139.667 146.333L139.333 145.667M196.667 145.333L197.333 145.667L196.667 145.333M218 145L218 151L219 151L218 145M79 146L80 147L79 146M159 146L160 147L159 146M199 146L200 147L199 146M46 147L47 148L46 147M78 147L79 148L78 147M99 147L100 148L99 147M116 147L117 148L116 147M201 147L202 148L201 147M47 148L48 149L47 148M77 148L78 149L77 148M140.333 148.667L140.667 149.333L140.333 148.667M160 148L161 149L160 148M202 148L203 149L202 148M363 148L363 152L364 152L363 148M98.3333 149.667L98.6667 150.333L98.3333 149.667M161 149L162 150L161 149M48 150L49 151L48 150M76 150L77 151L76 150M115 150L116 151L115 150M123.333 150.667L123.667 151.333L123.333 150.667M162 150L163 151L162 150M75 151L76 152L75 151M163 151L164 152L163 151M205 151L206 152L205 151M276 151L276 158L277 158L276 151M49 152L50 153L49 152M74 152L75 153L74 152M97 152L98 153L97 152M114 152L115 153L114 152M141.333 152.667L141.667 153.333L141.333 152.667M165 152L166 153L165 152M206 152L207 153L206 152M320 152L320 155L321 155L320 152M167 153L168 154L167 153M207.333 153.667L207.667 154.333L207.333 153.667M96 154L97 155L96 154M169 154L170 155L169 154M362 154L363 155L362 154M51 155L52 156L51 155M72 155L73 156L72 155M113 155L114 156L113 155M124.333 155.667L124.667 156.333L124.333 155.667M142.333 155.667L142.667 156.333L142.333 155.667M171.667 155.333L172.333 155.667L171.667 155.333M71.3333 156.667L71.6667 157.333L71.3333 156.667M95 156L96 157L95 156M174.667 156.333L175.333 156.667L174.667 156.333M208 156L208 159L209 159L208 156M217 156L217 163L218 163L217 156M112.333 157.667L112.667 158.333L112.333 157.667M178.667 157.333L179.333 157.667L178.667 157.333M94 158L95 159L94 158M182.667 158.333L183.333 158.667L182.667 158.333M236 158L236 162L237 162L236 158M319.333 158.667L319.667 159.333L319.333 158.667M115 159L116 160L115 159M118 159L119 160L118 159M143 159L144 160L143 159M185.667 159.333L186.333 159.667L185.667 159.333M360 159L361 160L360 159M93.3333 160.667L93.6667 161.333L93.3333 160.667M187 160L188 161L187 160M161 161L161 162L171 164C172.66 159.598 163.726 161 161 161M188 161L189 162L188 161M318 161L319 162L318 161M359 161L360 162L359 161M70 162L70 168L71 168L70 162M92 162L93 163L92 162M144.333 162.667L144.667 163.333L144.333 162.667M153 162L153 167L154 167L155 162L153 162M189 162L190 163L189 162M256 162L256 168L257 168L256 162M51 163L51 168L52 168L51 163M208 163L208 166L209 166L208 163M275 163L275 168L276 168L275 163M317 164L318 165L317 164M357 164L358 165L357 164M91 165L92 166L91 165M145.333 166.667L145.667 167.333L145.333 166.667M172 166L173 167L172 166M316 166L317 167L316 166M90 167L91 168L90 167M189 167L190 168L189 167M216 167L216 173L217 173L216 167M235 167L235 173L236 173L235 167M355 167L356 168L355 167M188 168L189 169L188 168M207 168L208 169L207 168M354 168L355 169L354 168M89 169L90 170L89 169M146.333 169.667L146.667 170.333L146.333 169.667M154.333 169.667L154.667 170.333L154.333 169.667M174 169L175 170L174 169M187 169L188 170L187 169M314 169L315 170L314 169M176 170L177 171L176 170M185.667 170.333L186.333 170.667L185.667 170.333M206 170L207 171L206 170M88 171L89 172L88 171M179 171L179 172L184 172L179 171M313 171L314 172L313 171M352 171L353 172L352 171M106 174L128 173C123.413 171.075 109.41 170.098 106 174M155 172L156 173L155 172M205 172L206 173L205 172M312 172L313 173L312 172M351 172L352 173L351 172M50 173L50 179L51 179L50 173M69 173L69 180L70 180L69 173M87 173L88 174L87 173M147 173L148 174L147 173M204 173L205 174L204 173M255 173L255 181L256 181L255 173M274 173L274 180L275 180L274 173M350 173L351 174L350 173M128.333 174.667L128.667 175.333L128.333 174.667M156 174L157 175L156 174M203 174L204 175L203 174M349 174L350 175L349 174M86 175L87 176L86 175M105 175L106 176L105 175M310 175L311 176L310 175M348 175L349 176L348 175M148.333 176.667L148.667 177.333L148.333 176.667M201 176L202 177L201 176M309 176L310 177L309 176M347 176L348 177L347 176M85.3333 177.667L85.6667 178.333L85.3333 177.667M104.333 177.667L104.667 178.333L104.333 177.667M158 177L159 178L158 177M200 177L201 178L200 177M346 177L347 178L346 177M129 178L129 181L130 181L129 178M159 178L160 179L159 178M199 178L200 179L199 178M215 178L215 183L234 183L234 182L216 182L215 178M234 178L234 182L235 182L234 178M345 178L346 179L345 178M160.667 179.333L161.333 179.667L160.667 179.333M197 179L198 180L197 179M344 179L345 180L344 179M84 180L85 181L84 180M103 180L104 181L103 180M149 180L130 182L130 183C133.424 183 150.784 184.732 149 180M162 180L163 181L162 180M195 180L196 181L195 180M343 180L344 181L343 180M164.667 181.333L165.333 181.667L164.667 181.333M193 181L194 182L193 181M50 182L50 183L69 183L50 182M83 182L83 183L103 183L83 182M167 182L167 183L170 183L167 182M189.667 182.333L190.333 182.667L189.667 182.333M255 182L255 183L274 183L255 182M173 183L173 184L186 184L173 183M339 183L340 184L339 183M338 184L339 185L338 184M337 185L338 186L337 185M299 186L300 187L299 186M298 187L299 188L298 187M334 187L335 188L334 187M297 188L298 189L297 188M333 188L334 189L333 188M296 189L297 190L296 189M331 189L332 190L331 189M330 190L331 191L330 190M293 191L294 192L293 191M328 191L329 192L328 191M292 192L293 193L292 192M327 192L328 193L327 192M325 193L326 194L325 193M289 194L290 195L289 194M324 194L325 195L324 194M288 195L289 196L288 195M322 195L323 196L322 195M46 198L46 200L53 200L53 222L56 222L56 201L63 200L63 198L46 198M97 197L96 222C97.1581 221.752 104.212 198.307 105.972 212C106.139 213.295 106 214.695 106 216L106 222L109 222C109 213.526 110.851 202.218 99 205L99 197L97 197M149 197L149 222L151 222L151 197L149 197M192 197L194 201L194 197L192 197M285 197L286 198L285 197M319 197L320 198L319 197M317 198L318 199L317 198M282 199L283 200L282 199M315 199L316 200L315 199M280 200L281 201L280 200M313 200L314 201L313 200M279 201L280 202L279 201M277 202L278 203L277 202M310 202L311 203L310 202M308 203L309 204L308 203M75 216C70.2704 218.823 67.8016 219.162 65 214L76 214C75.4235 202.919 62.512 200.917 62.3596 213C62.2458 222.016 75.1572 226.298 75 216M93 216C91.0269 216.599 88.1837 218.842 86.1088 218.388C82.1782 217.528 82.1896 209.844 85.419 208.171C87.6103 207.036 90.8689 209.396 93 210C88.5902 199.126 78.4951 206.368 80.2292 215.995C81.8001 224.717 90.5687 222.978 93 216M114 204L114 222L117 222C117 219.224 115.496 208.207 120 208.207C124.504 208.207 123 219.224 123 222L126 222C126 210.025 127.084 204.777 114 204M135.059 204.758C127.29 207.742 129.988 225.027 138.956 222.199C147.382 219.542 145.17 200.874 135.059 204.758M160.109 204.747C152.49 207.864 155.664 225.521 164.892 222.214C173.507 219.127 170.206 200.616 160.109 204.747M184 221C181.699 226.522 179.065 225.859 174 224C175.623 229.346 182.951 230.997 185.397 224.941C187.705 219.226 186 210.117 186 204C182.792 204.192 178.259 203.369 175.703 205.743C168.324 212.598 175.156 223.027 184 221M192 204C191.47 208.747 189.87 219.244 194 222L194 204L192 204M211 216C206.679 218.58 203.643 219.593 202 214L212 214C211.73 202.832 199.031 201.052 199.031 213C199.031 222.395 211.982 226.16 211 216M218 216L217 216C216.146 224.888 229.018 223.825 227.623 216.051C226.858 211.784 221.068 210.634 219 207L228 209C225.817 204.671 216.372 201.279 216.573 209.001C216.602 210.139 227.738 225.843 218 216M274 204L275 205L274 204M306 204L307 205L306 204M272 205L273 206L272 205M304 205L305 206L304 205z"/>
<path style="fill:#fdfdfd; stroke:none;" d="M202 211L209 211C207.467 206.195 203.533 206.195 202 211z"/>
<path style="fill:#b5976c; stroke:none;" d="M270 206L271 207L270 206M302 206L303 207L302 206z"/>
<path style="fill:#fdfdfd; stroke:none;" d="M65 211L73 211C71.3337 205.982 67.4086 207.076 65 211M135.429 208.047C131.485 210.592 133.402 221.293 138.712 218.824C143.716 216.498 141.252 204.289 135.429 208.047M160.738 208.047C157.154 210.758 159.3 222.353 164.687 218.338C168.853 215.232 165.849 204.183 160.738 208.047M178.302 208.086C174.141 210.48 176.377 220.946 181.571 217.914C185.726 215.488 183.511 205.09 178.302 208.086z"/>
<path style="fill:#b5976c; stroke:none;" d="M267 208L268 209L267 208M265 209L266 210L265 209M263 210L264 211L263 210M295 210L296 211L295 210M261 211L262 212L261 211M292 211L293 212L292 211M259 212L260 213L259 212M290 212L291 213L290 212M257 213L258 214L257 213M288 213L289 214L288 213M255 214L256 215L255 214M286 214L287 215L286 214M253 215L254 216L253 215M284 215L285 216L284 215M251 216L252 217L251 216M282 216L283 217L282 216M249 217L250 218L249 217M247 218L248 219L247 218M277 218L278 219L277 218M245 219L246 220L245 219M275 219L276 220L275 219M243 220L244 221L243 220M272 220L273 221L272 220M240 221L241 222L240 221M270 221L271 222L270 221M238 222L239 223L238 222M267.667 222.333L268.333 222.667L267.667 222.333M236 223L237 224L236 223M265 223L266 224L265 223M234 224L235 225L234 224M262.667 224.333L263.333 224.667L262.667 224.333M231 225L232 226L231 225M260 225L261 226L260 225M229 226L230 227L229 226M257 226L258 227L257 226M226.667 227.333L227.333 227.667L226.667 227.333M254.667 227.333L255.333 227.667L254.667 227.333M224 228L225 229L224 228M252 228L253 229L252 228M221.667 229.333L222.333 229.667L221.667 229.333M249 229L250 230L249 229M219 230L220 231L219 230M246.667 230.333L247.333 230.667L246.667 230.333M216 231L217 232L216 231M243.667 231.333L244.333 231.667L243.667 231.333M214 232L215 233L214 232M240.667 232.333L241.333 232.667L240.667 232.333M211 233L212 234L211 233M237.667 233.333L238.333 233.667L237.667 233.333M208 234L209 235L208 234M234.667 234.333L235.333 234.667L234.667 234.333M205 235L206 236L205 235M231 235L232 236L231 235M203 236L204 237L203 236M228.667 236.333L229.333 236.667L228.667 236.333M200 237L201 238L200 237M225 237L226 238L225 237M197 238L198 239L197 238M222 238L223 239L222 238M194 239L195 240L194 239M218.667 239.333L219.333 239.667L218.667 239.333M191 240L192 241L191 240M215 240L216 241L215 240M188 241L189 242L188 241M211.667 241.333L212.333 241.667L211.667 241.333M185 242L186 243L185 242M208 242L209 243L208 242M182 243L183 244L182 243M204 243L205 244L204 243M179 244L180 245L179 244M200.667 244.333L201.333 244.667L200.667 244.333M175 245L176 246L175 245M196 245L197 246L196 245M172 246L173 247L172 246M192.667 246.333L193.333 246.667L192.667 246.333M168.667 247.333L169.333 247.667L168.667 247.333M188 247L189 248L188 247M165 248L166 249L165 248M183.667 248.333L184.333 248.667L183.667 248.333M162 249L163 250L162 249M179.667 249.333L180.333 249.667L179.667 249.333M158.667 250.333L159.333 250.667L158.667 250.333M174.667 250.333L175.333 250.667L174.667 250.333M154.667 251.333L155.333 251.667L154.667 251.333M170.667 251.333L171.333 251.667L170.667 251.333M150.667 252.333L151.333 252.667L150.667 252.333M165.667 252.333L166.333 252.667L165.667 252.333M147 253L148 254L147 253M160.667 253.333L161.333 253.667L160.667 253.333M143 254L144 255L143 254M154.667 254.333L155.333 254.667L154.667 254.333M139 255L140 256L139 255M149.667 255.333L150.333 255.667L149.667 255.333M134.667 256.333L135.333 256.667L134.667 256.333M143.667 256.333L144.333 256.667L143.667 256.333M122 259L122 260L133 259L122 259M137.667 257.333L138.333 257.667L137.667 257.333M36 275L36 277L38 275L36 275z"/>
<path style="fill:#0e5b9e; stroke:none;" d="M33 295C38.3259 293.129 37.8086 285.836 39 281L40 281L40 295C46.2269 293.987 48.4055 287.535 50 282L51 282L48 295L52 295L56 276C48.5033 276.245 46.6241 281.697 44 288L43 288L43 276C33.9595 275.534 33.5892 287.786 33 295z"/>
<path style="fill:#b5976c; stroke:none;" d="M39 275L39 276L43 276L39 275M50 275L50 276L56 276L50 275M119 275L119 276L123 276L119 275M197 275L197 276L201 276L197 275M311 275L311 276L316 277L311 275M328 275L328 276L332 276L328 275M352 275L352 276L357 277L352 275M49 276L50 277L49 276z"/>
<path style="fill:#0e5b9e; stroke:none;" d="M113 276L107 281L109 284C107.47 288.839 105.871 295.692 113 295C111.49 290.78 110.832 286.672 115 284L113 281L113 276z"/>
<path style="fill:#b5976c; stroke:none;" d="M114 276L115 277L114 276z"/>
<path style="fill:#0e5b9e; stroke:none;" d="M119 276L115 295L119 295L125 283L125 295C132.359 292.566 131.895 279.182 122 282L123 276L119 276M197 276L193 295L203 283L203 295C210.305 292.44 209.885 279.185 200 282L201 276L197 276M232 276L226 282C227.309 285.964 225.776 299.905 233 293L230 292L235 282L235 281L232 276z"/>
<path style="fill:#b5976c; stroke:none;" d="M233.333 276.667L233.667 277.333L233.333 276.667z"/>
<path style="fill:#0e5b9e; stroke:none;" d="M305 276C301.075 280.469 295.124 296.424 306 295L306 293L303 292L308 283L305 276z"/>
<path style="fill:#b5976c; stroke:none;" d="M306.333 276.667L306.667 277.333L306.333 276.667z"/>
<path style="fill:#0e5b9e; stroke:none;" d="M311 276L308 295L318 283L317 295L321 295C321.562 287.891 324.351 279.656 314 282L315 276L311 276M328 279L332 276L328 279M352 276L349 295L356 289L361 295C360.138 289.105 358.979 286.175 364 282L364 281L354 285L356 276L352 276z"/>
<path style="fill:#b5976c; stroke:none;" d="M55.3333 277.667L55.6667 278.333L55.3333 277.667M111 277L112 278L111 277M118.333 277.667L118.667 278.333L118.333 277.667M196.333 277.667L196.667 278.333L196.333 277.667M200 277L200 280L201 280L200 277M230 277L231 278L230 277M303 277L304 278L303 277M327.333 277.667L327.667 278.333L327.333 277.667M48 278L49 279L48 278M122.333 278.667L122.667 279.333L122.333 278.667M302 278L303 279L302 278M310.333 278.667L310.667 279.333L310.333 278.667M331 278L332 279L331 278M109 279L110 280L109 279M113.333 279.667L113.667 280.333L113.333 279.667M314 279L315 280L314 279M351.333 279.667L351.667 280.333L351.333 279.667M35.3333 280.667L35.6667 281.333L35.3333 280.667M47 280L48 281L47 280M62 280L62 281L67 281L62 280M81 280L81 281L85 282L85 281L81 280M89 280L89 281L94 281L89 280M124 280L124 281L128 281L124 280M138 280L138 281L143 281L138 280M157 280L157 281L160 281L157 280M203 280L203 281L206 281L203 280M215 280L215 281L221 281L215 280M228 280L229 281L228 280M254 280L253 282L254 280M257.333 280.667L257.667 281.333L257.333 280.667M263 280L263 281L268 281L263 280M289 280L290 281L289 280M301 280L302 281L301 280M317 280L317 281L321 281L317 280M341 280L341 281L345 281L341 280M355.333 280.667L355.667 281.333L355.333 280.667M362 280L363 281L362 280M39 281L38 285L39 285L39 281z"/>
<path style="fill:#0e5b9e; stroke:none;" d="M60.1335 282.028C52.1406 286.612 58.7749 299.323 66.8912 294.127C74.9349 288.978 68.8126 277.05 60.1335 282.028z"/>
<path style="fill:#b5976c; stroke:none;" d="M68 281L69 282L68 281z"/>
<path style="fill:#0e5b9e; stroke:none;" d="M75 281L72 295L84 281L75 281z"/>
<path style="fill:#b5976c; stroke:none;" d="M87 281L88 282L87 281z"/>
<path style="fill:#0e5b9e; stroke:none;" d="M96 291L87 290L97 289C96.7514 281.365 86.9573 277.179 84.4344 286.044C82.0111 294.559 91.8912 298.627 96 291z"/>
<path style="fill:#b5976c; stroke:none;" d="M95 281L96 282L95 281M115.333 281.667L115.667 282.333L115.333 281.667M122 281L123 282L122 281M129 281L130 282L129 281M135 281L134 283L135 281z"/>
<path style="fill:#0e5b9e; stroke:none;" d="M134 285L142 284L142 286C128.678 289.293 132.544 294.654 144 295C144.273 291.544 145.987 286.595 144.396 283.318C142.06 278.509 135.755 281.817 134 285M150 281L147 295C150.689 294.36 159.57 277.216 157.434 290.97C157.224 292.327 157.109 293.63 157 295C160.982 293.683 164.579 285.276 160.397 282.039C158.033 280.209 152.856 281.103 150 281z"/>
<path style="fill:#b5976c; stroke:none;" d="M155 281L156 282L155 281M161 281L162 282L161 281M172 281L172 285L173 285L172 281z"/>
<path style="fill:#0e5b9e; stroke:none;" d="M173 281L174 295L183 287L183 295C189.099 293.951 191.447 286.389 193 281L186 289L185 289L185 281L176 289L176 281L173 281z"/>
<path style="fill:#b5976c; stroke:none;" d="M189 281L190 282L189 281M193 281L194 282L193 281M200 281L201 282L200 281M207 281L208 282L207 281M213 281L212 283L213 281z"/>
<path style="fill:#0e5b9e; stroke:none;" d="M212 285L220 284L220 286C217.05 286.574 204.937 290.303 212.431 294.721C214.802 296.119 219.283 294.918 222 295C222.262 291.708 223.927 287.358 222.968 284.148C221.271 278.463 213.941 281.48 212 285z"/>
<path style="fill:#b5976c; stroke:none;" d="M222 281L223 282L222 281M226 281L227 282L226 281z"/>
<path style="fill:#0e5b9e; stroke:none;" d="M243 281C244.678 289.903 243.693 293.04 241 301C249.785 300.332 254.798 288.63 257 281C252.069 282.46 250.364 286.277 249 291L248 291L247 281L243 281z"/>
<path style="fill:#b5976c; stroke:none;" d="M261 281L262 282L261 281z"/>
<path style="fill:#0e5b9e; stroke:none;" d="M262.109 281.742C253.999 285.212 258.947 298.933 267.892 294.552C276.396 290.387 271.33 277.797 262.109 281.742z"/>
<path style="fill:#b5976c; stroke:none;" d="M276.333 281.667L276.667 282.333L276.333 281.667z"/>
<path style="fill:#0e5b9e; stroke:none;" d="M277 281C273.986 292.648 275.675 294.59 287 295L290 281L286 281C284.967 286.307 284.146 290.461 279 293L280 281L277 281z"/>
<path style="fill:#b5976c; stroke:none;" d="M280 281L280 284L281 284L280 281M299 281L299 284L300 284L299 281M314.667 281.333L315.333 281.667L314.667 281.333M321 281L322 282L321 281z"/>
<path style="fill:#0e5b9e; stroke:none;" d="M327 281L324 295L328 295L331 281L327 281z"/>
<path style="fill:#b5976c; stroke:none;" d="M334 281L335 282L334 281z"/>
<path style="fill:#0e5b9e; stroke:none;" d="M332 295L336 295C336.432 289.756 337.742 286.235 342 283L341 295L345 295C345.632 291.741 347.745 286.517 346.357 283.318C344.957 280.09 337.084 280.271 334.988 282.628C332.571 285.347 332.449 291.525 332 295z"/>
<path style="fill:#b5976c; stroke:none;" d="M338.667 281.333L339.333 281.667L338.667 281.333M358 281L359 282L358 281M46 282L47 283L46 282M50 282L51 283L50 282M54.3333 282.667L54.6667 283.333L54.3333 282.667M58 282L59 283L58 282M96 282L97 283L96 282M117.333 282.667L117.667 283.333L117.333 282.667M180 282L181 283L180 282M195.333 282.667L195.667 283.333L195.333 282.667M234.333 282.667L234.667 283.333L234.333 282.667M322 282L323 283L322 282M326.333 282.667L326.667 283.333L326.333 282.667M357 282L358 283L357 282z"/>
<path style="fill:#fdfdfd; stroke:none;" d="M50 283L51 284L50 283z"/>
<path style="fill:#b5976c; stroke:none;" d="M63 283L63 284L67 285L67 284L63 283M70 283L71 284L70 283M74.3333 283.667L74.6667 284.333L74.3333 283.667M83 283L84 284L83 283M90.6667 283.333L91.3333 283.667L90.6667 283.333M124 283L125 284L124 283M130 283L130 286L131 286L130 283M138 283L138 284L141 284L138 283M145 283L145 287L146 287L145 283M149.333 283.667L149.667 284.333L149.333 283.667M155.667 283.333L156.333 283.667L155.667 283.333M162 283L162 287L163 287L162 283M188 283L189 284L188 283M192 283L193 284L192 283M202 283L203 284L202 283M208 283L208 286L209 286L208 283M217.667 283.333L218.333 283.667L217.667 283.333M223 283L224 284L223 283M243 283L243 286L244 286L243 283M256 283L257 284L256 283M265.667 283.333L266.333 283.667L265.667 283.333M285 283L286 284L285 283M289.333 283.667L289.667 284.333L289.333 283.667M307 283L308 284L307 283M316.667 283.333L317.333 283.667L316.667 283.333M330.333 283.667L330.667 284.333L330.333 283.667M340.667 283.333L341.333 283.667L340.667 283.333M356 283L357 284L356 283M361 283L362 284L361 283M34 284L34 287L35 287L34 284M45 284L46 285L45 284M49 284L51 286L51 284L49 284z"/>
<path style="fill:#fdfdfd; stroke:none;" d="M62.4985 285.086C59.5727 286.958 60.8778 293.253 64.6096 290.914C67.7006 288.976 66.2455 282.689 62.4985 285.086z"/>
<path style="fill:#b5976c; stroke:none;" d="M80 284L81 285L80 284M84 284L85 285L84 284z"/>
<path style="fill:#fdfdfd; stroke:none;" d="M88 287L94 286C91.3477 284.077 89.806 284.236 88 287z"/>
<path style="fill:#b5976c; stroke:none;" d="M93 284L94 285L93 284M97 284L97 289L98 289L97 284M108 284L109 285L108 284M112.333 284.667L112.667 285.333L112.333 284.667M122 284L123 285L122 284M133 284L134 285L133 284M137 284L138 285L137 284M141.333 284.667L141.667 285.333L141.333 284.667M154 284L155 285L154 284M176 284L176 289L177 289L176 284M179 284L180 285L179 284M200 284L201 285L200 284M211 284L212 285L211 284M215 284L216 285L215 284M219.333 284.667L219.667 285.333L219.333 284.667M227 284L227 287L228 287L227 284M247 284L247 287L248 287L247 284M258 284L259 285L258 284M263 284L262 286L263 284z"/>
<path style="fill:#fdfdfd; stroke:none;" d="M268 284C257.241 285.716 267.671 297.571 268 284z"/>
<path style="fill:#b5976c; stroke:none;" d="M272.333 284.667L272.667 285.333L272.333 284.667M309.333 284.667L309.667 285.333L309.333 284.667M314 284L315 285L314 284M318 284L318 287L319 287L318 284M322 284L322 287L323 287L322 284M350.333 284.667L350.667 285.333L350.333 284.667M354.667 284.333L355.333 284.667L354.667 284.333M360 284L361 285L360 284M56.3333 285.667L56.6667 286.333L56.3333 285.667M121 285L122 286L121 285M153 285L154 286L153 285M158 285L159 286L158 285M191 285L192 286L191 285M199 285L200 286L199 285M223 285L223 288L224 288L223 285M231.333 285.667L231.667 286.333L231.333 285.667M255 285L256 286L255 285M268 285L268 289L269 289L268 285M300.333 285.667L300.667 286.333L300.333 285.667M304 285L304 288L305 288L304 285M333.333 285.667L333.667 286.333L333.333 285.667M359 285L360 286L359 285M39 286L40 287L39 286M44 286L45 287L44 286M48 286L49 287L48 286M67 286L68 287L67 286M71.3333 286.667L71.6667 287.333L71.3333 286.667M78 286L79 287L78 286M93 286L94 287L93 286M136 286L136 287L141 287L136 286M178 286L179 287L178 286M185 286L186 287L185 286M215 286L215 287L218 287L215 286M250 286L251 287L250 286M275.333 286.667L275.667 287.333L275.333 286.667M279.333 286.667L279.667 287.333L279.333 286.667M313 286L314 287L313 286M337.333 286.667L337.667 287.333L337.333 286.667M43 287L44 288L43 287M53.3333 287.667L53.6667 288.333L53.3333 287.667M60 287L61 288L60 287M83 287L83 291L84 291L83 287M116.333 287.667L116.667 288.333L116.333 287.667M120.333 287.667L120.667 288.333L120.333 287.667M134 287L135 288L134 287M148 287L148 290L149 290L148 287M182 287L182 295L183 295L182 287M190 287L191 288L190 287M194.333 287.667L194.667 288.333L194.333 287.667M198.333 287.667L198.667 288.333L198.333 287.667M212 287L213 288L212 287M254 287L255 288L254 287M257 287L257 291L258 291L257 287M284.333 287.667L284.667 288.333L284.333 287.667M325.333 287.667L325.667 288.333L325.333 287.667M342 287L343 288L342 287M346.333 287.667L346.667 288.333L346.333 287.667M37.3333 288.667L37.6667 289.333L37.3333 288.667M47 288L48 289L47 288M49.3333 288.667L49.6667 289.333L49.3333 288.667M73.3333 288.667L73.6667 289.333L73.3333 288.667M107 288L107 291L108 291L107 288M125.333 288.667L125.667 289.333L125.333 288.667M152.333 288.667L152.667 289.333L152.333 288.667M203.333 288.667L203.667 289.333L203.333 288.667M249 288L250 289L249 288M261.333 288.667L261.667 289.333L261.333 288.667M272.333 288.667L272.667 289.333L272.333 288.667M288.333 288.667L288.667 289.333L288.333 288.667M308.333 288.667L308.667 289.333L308.333 288.667M312 288L312 291L313 291L312 288M329.333 288.667L329.667 289.333L329.333 288.667M349 288L349 291L350 291L349 288M359 288L360 289L359 288M33.3333 289.667L33.6667 290.333L33.3333 289.667M66 289L67 290L66 289M77 289L78 290L77 289M88 289L88 290L97 290L88 289M111.333 289.667L111.667 290.333L111.333 289.667M129.333 289.667L129.667 290.333L129.333 289.667M137 289L138 290L137 289z"/>
<path style="fill:#fdfdfd; stroke:none;" d="M136 292L141 289L136 292z"/>
<path style="fill:#b5976c; stroke:none;" d="M157.333 289.667L157.667 290.333L157.333 289.667M161.333 289.667L161.667 290.333L161.333 289.667M173 289L173 293L174 293L173 289M180.333 289.667L180.667 290.333L180.333 289.667M189 289L190 290L189 289M207.333 289.667L207.667 290.333L207.333 289.667M215 289L216 290L215 289z"/>
<path style="fill:#fdfdfd; stroke:none;" d="M214 292L219 289L214 292z"/>
<path style="fill:#b5976c; stroke:none;" d="M226 289L226 292L227 292L226 289M244 289L244 292L245 292L244 289M46 290L47 291L46 290M60 290L61 291L60 290M70 290L71 291L70 290M87 290L88 291L87 290M140 290L141 291L140 290M144.333 290.667L144.667 291.333L144.333 290.667M218 290L219 291L218 290M222.333 290.667L222.667 291.333L222.333 290.667M230.333 290.667L230.667 291.333L230.333 290.667M248 290L249 291L248 290M252 290L253 291L252 290M267 290L268 291L267 290M283 290L284 291L283 290M299 290L299 295L300 295L299 290M317.333 290.667L317.667 291.333L317.333 290.667M321.333 290.667L321.667 291.333L321.333 290.667M332.333 290.667L332.667 291.333L332.333 290.667M336 290L336 293L337 293L336 290M356.333 290.667L356.667 291.333L356.333 290.667M52.3333 291.667L52.6667 292.333L52.3333 291.667M56 291L57 292L56 291M65 291L66 292L65 291M92 291L93 292L92 291M96.3333 291.667L96.6667 292.333L96.3333 291.667M115 291L115 294L116 294L115 291M188 291L189 292L188 291M193 291L193 294L194 294L193 291M262 291L263 292L262 291M271 291L272 292L271 291M274.333 291.667L274.667 292.333L274.333 291.667M303 291L304 292L303 291M341.333 291.667L341.667 292.333L341.333 291.667M360 291L361 292L360 291M366 291L366 292L370 292L366 291M45 292L46 293L45 292M48.3333 292.667L48.6667 293.333L48.3333 292.667M62.6667 292.333L63.3333 292.667L62.6667 292.333M69 292L70 293L69 292M72.3333 292.667L72.6667 293.333L72.3333 292.667M91 292L92 293L91 292M111 292L111 293L113 295L114 295L111 292M119.333 292.667L119.667 293.333L119.333 292.667M136 292L136 293L139 293L136 292M147.333 292.667L147.667 293.333L147.333 292.667M179 292L180 293L179 292M214 292L214 293L217 293L214 292M231.667 292.333L232.333 292.667L231.667 292.333M251 292L252 293L251 292M263 292L263 293L266 293L263 292M279 292L280 293L279 292M281 292L282 293L281 292M287 292L287 295L288 295L287 292M304.667 292.333L305.333 292.667L304.667 292.333M324.333 292.667L324.667 293.333L324.333 292.667M328 292L328 295L329 295L328 292M345.333 292.667L345.667 293.333L345.333 292.667z"/>
<path style="fill:#0e5b9e; stroke:none;" d="M366 295L370 292L366 295z"/>
<path style="fill:#b5976c; stroke:none;" d="M36.3333 293.667L36.6667 294.333L36.3333 293.667M57 293L58 294L57 293M68 293L69 294L68 293M76.3333 293.667L76.6667 294.333L76.3333 293.667M95 293L96 294L95 293M124 293L128 296L128 295L124 293M132 293L133 294L132 293M151.333 293.667L151.667 294.333L151.333 293.667M156 293C156.678 296.162 159.32 296.916 161 294L156 293M178.333 293.667L178.667 294.333L178.333 293.667M187 293L188 294L187 293M197 293L198 294L197 293M202 293L206 296L206 295L202 293M206.333 293.667L206.667 294.333L206.333 293.667M210 293L211 294L210 293M226.333 293.667L226.667 294.333L226.333 293.667M307 293L311 296L311 295L307 293M311.333 293.667L311.667 294.333L311.333 293.667M348 293L352 296L352 295L348 293M369.333 293.667L369.667 294.333L369.333 293.667M32 294L33 295L32 294M44 294L45 295L44 294M58 294L59 295L58 294M67 294L68 295L67 294M94 294L95 295L94 294M107 294L108 295L107 294M128 294L129 295L128 294M139 294L140 295L139 294M144 294L145 295L144 294M217 294L218 295L217 294M222 294L223 295L222 294M232 294L233 295L232 294M250 294L251 295L250 294M275 294L276 295L275 294M282 294L283 295L282 294M316 294L317 295L316 294M331 294L332 295L331 294M352 294L353 295L352 294M357 294L358 295L357 294M361 294L358 295L358 296L361 294M365 294L369 296L369 295L365 294M33 295L33 296L36 296L33 295M40 295L40 296L44 296L40 295M48 295L48 296L52 296L48 295M60.6667 295.333L61.3333 295.667L60.6667 295.333M64.6667 295.333L65.3333 295.667L64.6667 295.333M72 295L72 296L76 296L72 295M87.6667 295.333L88.3333 295.667L87.6667 295.333M91.6667 295.333L92.3333 295.667L91.6667 295.333M108.667 295.333L109.333 295.667L108.667 295.333M112 295L113 296L112 295M115 295L115 296L119 296L115 295M134 295L135 296L134 295M137 295L138 296L137 295M141 295L141 296L144 296L141 295M147 295L147 296L151 296L147 295M174 295L174 296L178 296L174 295M183 295L183 296L187 296L183 295M193 295L193 296L197 296L193 295M212 295L213 296L212 295M215 295L216 296L215 295M219 295L219 296L222 296L219 295M228 295L229 296L228 295M231 295L232 296L231 295M261.667 295.333L262.333 295.667L261.667 295.333M265.667 295.333L266.333 295.667L265.667 295.333M276.667 295.333L277.333 295.667L276.667 295.333M279.667 295.333L280.333 295.667L279.667 295.333M283 295L283 296L287 296L283 295M301 295L302 296L301 295M304.667 295.333L305.333 295.667L304.667 295.333M317 295L317 296L321 296L317 295M324 295L324 296L328 296L324 295M332 295L332 296L336 296L332 295M341 295L341 296L345 296L341 295M244 296L245 297L244 296M243 297L244 298L243 297M248 297L249 298L248 297M240 299L241 300L240 299M246 300L247 301L246 300z"/>
</svg>
